<svg width="32" height="32" viewBox="0 0 32 32" fill="none" xmlns="http://www.w3.org/2000/svg">
<path d="M14 5.96436C14 6.49479 14.2107 7.0035 14.5858 7.37857C14.9609 7.75364 15.4696 7.96436 16 7.96436C16.5304 7.96436 17.0391 7.75364 17.4142 7.37857C17.7893 7.0035 18 6.49479 18 5.96436C18 5.43392 17.7893 4.92521 17.4142 4.55014C17.0391 4.17507 16.5304 3.96436 16 3.96436C15.4696 3.96436 14.9609 4.17507 14.5858 4.55014C14.2107 4.92521 14 5.43392 14 5.96436ZM14 15.9644C14 16.4948 14.2107 17.0035 14.5858 17.3786C14.9609 17.7536 15.4696 17.9644 16 17.9644C16.5304 17.9644 17.0391 17.7536 17.4142 17.3786C17.7893 17.0035 18 16.4948 18 15.9644C18 15.4339 17.7893 14.9252 17.4142 14.5501C17.0391 14.1751 16.5304 13.9644 16 13.9644C15.4696 13.9644 14.9609 14.1751 14.5858 14.5501C14.2107 14.9252 14 15.4339 14 15.9644V15.9644ZM14 25.9644C14 26.4948 14.2107 27.0035 14.5858 27.3786C14.9609 27.7536 15.4696 27.9644 16 27.9644C16.5304 27.9644 17.0391 27.7536 17.4142 27.3786C17.7893 27.0035 18 26.4948 18 25.9644C18 25.4339 17.7893 24.9252 17.4142 24.5501C17.0391 24.1751 16.5304 23.9644 16 23.9644C15.4696 23.9644 14.9609 24.1751 14.5858 24.5501C14.2107 24.9252 14 25.4339 14 25.9644V25.9644Z" fill="#E300B8"/>
</svg>
